<?xml version="1.0" encoding="utf-8"?>
<svg xmlns="http://www.w3.org/2000/svg" viewBox="0 0 500 500">
  <path d="M 424.344 228.937 C 427.309 191.305 420.183 153.559 403.751 119.603 C 376.532 145.524 344.364 165.646 309.195 178.782 C 312.025 213.591 310.457 248.626 304.527 283.066 C 347.331 272.247 387.908 253.913 424.344 228.937 Z M 269.9 290.077 C 276.854 256.705 279.295 222.553 277.136 188.528 C 256.39 193.489 234.749 196.108 212.5 196.108 C 190.253 196.108 168.612 193.489 147.866 188.528 C 145.75 222.553 148.192 256.686 155.101 290.077 C 193.15 295.908 231.852 295.908 269.9 290.077 Z M 163.946 324.364 C 196.197 328.194 228.799 328.194 261.053 324.364 C 249.962 360.144 233.597 394.061 212.5 425.001 C 191.404 394.079 175.04 360.144 163.946 324.364 Z M 120.473 283.086 C 114.523 248.646 112.951 213.591 115.809 178.761 C 80.612 165.627 48.445 145.499 21.23 119.579 C 4.799 153.539 -2.308 191.286 0.657 228.937 C 37.094 253.913 77.646 272.247 120.473 283.066 L 120.473 283.086 Z M 416.392 272.637 C 393.966 348.842 331.158 406.247 253.429 421.611 C 272.514 389.399 287.1 354.698 296.75 318.509 C 338.789 309.657 379.189 294.183 416.392 272.662 L 416.392 272.637 Z M 8.609 272.637 C 45.266 293.859 85.539 309.528 128.251 318.509 C 137.883 354.698 152.462 389.399 171.572 421.611 C 93.841 406.247 31.035 348.861 8.609 272.662 L 8.609 272.637 Z M 253.429 3.366 C 307.429 14.01 355.197 45.233 386.711 90.47 C 363.456 114.029 335.672 132.65 305.077 145.192 C 296.838 95.101 279.314 46.983 253.429 3.366 Z M 212.5 0 C 244.296 46.592 265.196 99.782 273.626 155.62 C 254.083 160.641 233.597 163.329 212.5 163.329 C 191.404 163.329 170.921 160.666 151.376 155.62 C 159.805 99.782 180.703 46.592 212.5 0 Z M 171.572 3.366 C 145.688 46.983 128.164 95.101 119.926 145.192 C 89.31 132.65 61.547 114.029 38.29 90.47 C 69.804 45.233 117.572 14.01 171.572 3.385 L 171.572 3.366 Z" style="stroke-width: 1; fill: rgb(30, 58, 138);"/>
  <text style="fill: rgb(255, 243, 243); font-family: &quot;American Typewriter&quot;; font-size: 239.3px; font-weight: 700; white-space: pre;" x="274.452" y="417.029">K</text>
</svg>